<svg width="24" height="24" viewBox="0 0 24 24" fill="none" xmlns="http://www.w3.org/2000/svg">
<g clip-path="url(#clip0_34546_189)">
<path d="M18.9999 8.71001L13.6669 4.56201C13.1989 4.19792 12.6229 4.00024 12.0299 4.00024C11.437 4.00024 10.8609 4.19792 10.3929 4.56201L5.05891 8.71001C4.73835 8.9593 4.479 9.27854 4.30066 9.64336C4.12232 10.0082 4.02972 10.4089 4.02991 10.815V18.015C4.02991 18.5454 4.24062 19.0542 4.61569 19.4292C4.99077 19.8043 5.49947 20.015 6.02991 20.015H18.0299C18.5603 20.015 19.0691 19.8043 19.4441 19.4292C19.8192 19.0542 20.0299 18.5454 20.0299 18.015V10.815C20.0299 9.99201 19.6499 9.21501 18.9999 8.71001Z" stroke="#78828A" stroke-width="1.5" stroke-linecap="round" stroke-linejoin="round"/>
<path d="M16 15C13.79 16.333 10.208 16.333 8 15" stroke="#78828A" stroke-width="1.5" stroke-linecap="round" stroke-linejoin="round"/>
</g>
<defs>
<clipPath id="clip0_34546_189">
<rect width="24" height="24" fill="white"/>
</clipPath>
</defs>
</svg>
